<svg xmlns="http://www.w3.org/2000/svg" xmlns:xlink="http://www.w3.org/1999/xlink" version="1.1" width="256" height="256" viewBox="0 0 256 256" xml:space="preserve">

<defs>
</defs>
<g style="stroke: none; stroke-width: 0; stroke-dasharray: none; stroke-linecap: butt; stroke-linejoin: miter; stroke-miterlimit: 10; fill: none; fill-rule: nonzero; opacity: 1;" transform="translate(1.4065934065934016 1.4065934065934016) scale(2.81 2.81)" >
	<circle cx="45" cy="45" r="45" style="stroke: none; stroke-width: 1; stroke-dasharray: none; stroke-linecap: butt; stroke-linejoin: miter; stroke-miterlimit: 10; fill: rgb(255,255,255); fill-rule: nonzero; opacity: 1;" transform="  matrix(1 0 0 1 0 0) "/>
	<path d="M 18.5 43.175 c -1.657 0 -3 -1.343 -3 -3 V 27.449 c 0 -3.63 2.953 -6.583 6.583 -6.583 h 12.726 c 1.657 0 3 1.343 3 3 s -1.343 3 -3 3 H 22.083 c -0.316 0 -0.583 0.267 -0.583 0.583 v 12.726 C 21.5 41.832 20.157 43.175 18.5 43.175 z" style="stroke: none; stroke-width: 1; stroke-dasharray: none; stroke-linecap: butt; stroke-linejoin: miter; stroke-miterlimit: 10; fill: rgb(248,252,252); fill-rule: nonzero; opacity: 1;" transform=" matrix(1 0 0 1 0 0) " stroke-linecap="round" />
	<path d="M 65.993 43.175 c -1.657 0 -3 -1.343 -3 -3 V 27.449 c 0 -0.316 -0.267 -0.583 -0.583 -0.583 H 49.684 c -1.657 0 -3 -1.343 -3 -3 s 1.343 -3 3 -3 H 62.41 c 3.63 0 6.583 2.953 6.583 6.583 v 12.726 C 68.993 41.832 67.65 43.175 65.993 43.175 z" style="stroke: none; stroke-width: 1; stroke-dasharray: none; stroke-linecap: butt; stroke-linejoin: miter; stroke-miterlimit: 10; fill: rgb(248,252,252); fill-rule: nonzero; opacity: 1;" transform=" matrix(1 0 0 1 0 0) " stroke-linecap="round" />
	<path d="M 34.809 74.642 H 22.083 c -3.63 0 -6.583 -2.953 -6.583 -6.584 V 55.332 c 0 -1.657 1.343 -3 3 -3 s 3 1.343 3 3 v 12.726 c 0 0.316 0.267 0.584 0.583 0.584 h 12.726 c 1.657 0 3 1.343 3 3 S 36.466 74.642 34.809 74.642 z" style="stroke: none; stroke-width: 1; stroke-dasharray: none; stroke-linecap: butt; stroke-linejoin: miter; stroke-miterlimit: 10; fill: rgb(248,252,252); fill-rule: nonzero; opacity: 1;" transform=" matrix(1 0 0 1 0 0) " stroke-linecap="round" />
	<path d="M 62.41 74.642 H 49.684 c -1.657 0 -3 -1.343 -3 -3 s 1.343 -3 3 -3 H 62.41 c 0.316 0 0.583 -0.268 0.583 -0.584 V 55.332 c 0 -1.657 1.343 -3 3 -3 s 3 1.343 3 3 v 12.726 C 68.993 71.688 66.04 74.642 62.41 74.642 z" style="stroke: none; stroke-width: 1; stroke-dasharray: none; stroke-linecap: butt; stroke-linejoin: miter; stroke-miterlimit: 10; fill: rgb(248,252,252); fill-rule: nonzero; opacity: 1;" transform=" matrix(1 0 0 1 0 0) " stroke-linecap="round" />
	<path d="M 22.007 39.668 c -1.657 0 -3 -1.343 -3 -3 V 23.942 c 0 -3.63 2.953 -6.583 6.583 -6.583 h 12.726 c 1.657 0 3 1.343 3 3 s -1.343 3 -3 3 H 25.59 c -0.316 0 -0.583 0.267 -0.583 0.583 v 12.726 C 25.007 38.325 23.664 39.668 22.007 39.668 z" style="stroke: none; stroke-width: 1; stroke-dasharray: none; stroke-linecap: butt; stroke-linejoin: miter; stroke-miterlimit: 10; fill: rgb(225,212,212); fill-rule: nonzero; opacity: 1;" transform=" matrix(1 0 0 1 0 0) " stroke-linecap="round" />
	<path d="M 69.5 39.668 c -1.657 0 -3 -1.343 -3 -3 V 23.942 c 0 -0.316 -0.267 -0.583 -0.583 -0.583 H 53.19 c -1.657 0 -3 -1.343 -3 -3 s 1.343 -3 3 -3 h 12.727 c 3.63 0 6.583 2.953 6.583 6.583 v 12.726 C 72.5 38.325 71.157 39.668 69.5 39.668 z" style="stroke: none; stroke-width: 1; stroke-dasharray: none; stroke-linecap: butt; stroke-linejoin: miter; stroke-miterlimit: 10; fill: rgb(225,212,212); fill-rule: nonzero; opacity: 1;" transform=" matrix(1 0 0 1 0 0) " stroke-linecap="round" />
	<path d="M 38.316 71.135 H 25.59 c -3.63 0 -6.583 -2.953 -6.583 -6.583 V 51.825 c 0 -1.657 1.343 -3 3 -3 s 3 1.343 3 3 v 12.727 c 0 0.316 0.267 0.583 0.583 0.583 h 12.726 c 1.657 0 3 1.343 3 3 S 39.973 71.135 38.316 71.135 z" style="stroke: none; stroke-width: 1; stroke-dasharray: none; stroke-linecap: butt; stroke-linejoin: miter; stroke-miterlimit: 10; fill: rgb(225,212,212); fill-rule: nonzero; opacity: 1;" transform=" matrix(1 0 0 1 0 0) " stroke-linecap="round" />
	<path d="M 65.917 71.135 H 53.19 c -1.657 0 -3 -1.343 -3 -3 s 1.343 -3 3 -3 h 12.727 c 0.316 0 0.583 -0.267 0.583 -0.583 V 51.825 c 0 -1.657 1.343 -3 3 -3 s 3 1.343 3 3 v 12.727 C 72.5 68.182 69.547 71.135 65.917 71.135 z" style="stroke: none; stroke-width: 1; stroke-dasharray: none; stroke-linecap: butt; stroke-linejoin: miter; stroke-miterlimit: 10; fill: rgb(225,212,212); fill-rule: nonzero; opacity: 1;" transform=" matrix(1 0 0 1 0 0) " stroke-linecap="round" />
</g>
</svg>